<?xml version="1.0" standalone="no"?>
<!DOCTYPE svg PUBLIC "-//W3C//DTD SVG 20010904//EN"
 "http://www.w3.org/TR/2001/REC-SVG-20010904/DTD/svg10.dtd">
<svg version="1.0" xmlns="http://www.w3.org/2000/svg"
 width="286.000000pt" height="259.000000pt" viewBox="0 0 286.000000 259.000000"
 preserveAspectRatio="xMidYMid meet">

<g transform="translate(0.000000,259.000000) scale(0.100000,-0.100000)"
fill="#000000" stroke="none">
<path d="M460 1310 l0 -740 975 0 975 0 0 740 0 740 -975 0 -975 0 0 -740z
m1920 540 l0 -170 -945 0 -945 0 0 170 0 170 945 0 945 0 0 -170z m0 -370 l0
-170 -945 0 -945 0 0 170 0 170 945 0 945 0 0 -170z m0 -375 l0 -165 -945 0
-945 0 0 165 0 165 945 0 945 0 0 -165z"/>
<path d="M1148 1903 c7 -3 12 -23 12 -48 0 -25 -5 -45 -12 -48 -7 -3 3 -5 22
-5 19 0 29 2 23 5 -15 5 -18 43 -4 43 5 0 12 -6 14 -12 3 -7 5 1 5 17 0 17 -2
24 -5 18 -8 -20 -23 -15 -23 7 0 21 24 27 36 9 4 -8 9 -7 16 2 6 9 8 -4 6 -39
-2 -41 0 -52 12 -52 12 0 14 11 12 55 l-4 55 -61 -1 c-34 0 -56 -3 -49 -6z"/>
<path d="M1507 1903 c-12 -12 -7 -22 8 -17 9 4 15 0 15 -10 0 -9 -6 -16 -12
-16 -7 0 -5 -5 5 -11 28 -17 22 -41 -9 -33 -19 5 -25 4 -20 -5 10 -15 41 -14
54 2 8 10 10 46 3 90 -1 9 -35 9 -44 0z"/>
<path d="M1281 1852 c-21 -39 35 -73 59 -34 10 16 10 16 20 0 14 -23 47 -23
59 0 21 39 -35 73 -59 35 -10 -17 -10 -17 -20 0 -14 22 -47 22 -59 -1z m39
-17 c0 -14 -4 -25 -10 -25 -5 0 -10 11 -10 25 0 14 5 25 10 25 6 0 10 -11 10
-25z m80 0 c0 -14 -4 -25 -10 -25 -5 0 -10 11 -10 25 0 14 5 25 10 25 6 0 10
-11 10 -25z"/>
<path d="M1440 1834 c0 -24 5 -34 16 -34 8 0 12 5 9 10 -9 14 4 52 16 45 5 -4
9 -2 9 3 0 5 -11 10 -25 10 -22 0 -25 -5 -25 -34z"/>
<path d="M1148 1553 c7 -3 12 -23 12 -48 0 -25 -5 -45 -12 -48 -7 -3 3 -5 22
-5 19 0 29 2 23 5 -15 5 -18 43 -4 43 5 0 12 -6 14 -12 3 -7 5 1 5 17 0 17 -2
24 -5 18 -8 -20 -23 -15 -23 7 0 21 24 27 36 9 4 -8 9 -7 16 2 6 9 8 -4 6 -39
-2 -41 0 -52 12 -52 12 0 14 11 12 55 l-4 55 -61 -1 c-34 0 -56 -3 -49 -6z"/>
<path d="M1507 1553 c-12 -12 -7 -22 8 -17 24 9 19 -36 -7 -63 l-21 -23 36 0
c25 0 37 5 37 14 0 10 -7 12 -21 9 -22 -6 -22 -6 1 25 19 26 21 34 10 47 -13
16 -32 20 -43 8z"/>
<path d="M1281 1502 c-21 -39 35 -73 59 -34 10 16 10 16 20 0 14 -23 47 -23
59 0 21 39 -35 73 -59 35 -10 -17 -10 -17 -20 0 -14 22 -47 22 -59 -1z m39
-17 c0 -14 -4 -25 -10 -25 -5 0 -10 11 -10 25 0 14 5 25 10 25 6 0 10 -11 10
-25z m80 0 c0 -14 -4 -25 -10 -25 -5 0 -10 11 -10 25 0 14 5 25 10 25 6 0 10
-11 10 -25z"/>
<path d="M1440 1484 c0 -24 5 -34 16 -34 8 0 12 5 9 10 -9 14 4 52 16 45 5 -4
9 -2 9 3 0 5 -11 10 -25 10 -22 0 -25 -5 -25 -34z"/>
<path d="M1195 1145 c0 -52 1 -55 25 -54 14 0 19 3 13 6 -7 2 -13 14 -13 25 0
14 5 18 15 14 11 -4 15 1 14 17 0 12 -3 16 -6 10 -8 -21 -23 -15 -23 8 0 17 5
20 25 17 14 -3 25 -1 25 3 0 5 -17 9 -37 9 l-38 0 0 -55z"/>
<path d="M1280 1145 c0 -37 4 -55 13 -55 8 0 11 16 9 55 -5 71 -22 71 -22 0z"/>
<path d="M1548 1193 c7 -3 12 -23 12 -48 0 -25 -5 -45 -12 -48 -7 -3 3 -5 22
-5 19 0 29 2 23 5 -8 3 -13 24 -13 54 0 44 -2 49 -22 48 -13 0 -17 -3 -10 -6z"/>
<path d="M1324 1146 c-10 -25 0 -51 20 -54 27 -6 48 25 35 49 -12 22 -47 25
-55 5z m36 -21 c0 -14 -4 -25 -10 -25 -5 0 -10 11 -10 25 0 14 5 25 10 25 6 0
10 -11 10 -25z"/>
<path d="M1404 1146 c-10 -25 0 -51 20 -54 27 -6 48 25 35 49 -12 22 -47 25
-55 5z m36 -21 c0 -14 -4 -25 -10 -25 -5 0 -10 11 -10 25 0 14 5 25 10 25 6 0
10 -11 10 -25z"/>
<path d="M1480 1124 c0 -24 5 -34 16 -34 8 0 12 5 9 10 -9 14 4 52 16 45 5 -4
9 -2 9 3 0 5 -11 10 -25 10 -22 0 -25 -5 -25 -34z"/>
</g>
</svg>
