<?xml version="1.0" standalone="no"?>
<!DOCTYPE svg PUBLIC "-//W3C//DTD SVG 20010904//EN"
 "http://www.w3.org/TR/2001/REC-SVG-20010904/DTD/svg10.dtd">
<svg version="1.0" xmlns="http://www.w3.org/2000/svg"
 width="286.000000pt" height="259.000000pt" viewBox="0 0 286.000000 259.000000"
 preserveAspectRatio="xMidYMid meet">

<g transform="translate(0.000000,259.000000) scale(0.100000,-0.100000)"
fill="#000000" stroke="none">
<path d="M360 1320 l0 -920 1070 0 1070 0 0 920 0 920 -1070 0 -1070 0 0 -920z
m2110 715 l0 -175 -1040 0 -1040 0 0 175 0 175 1040 0 1040 0 0 -175z m0 -355
l0 -150 -1040 0 -1040 0 0 150 0 150 1040 0 1040 0 0 -150z m0 -345 l0 -155
-1040 0 -1040 0 0 155 0 155 1040 0 1040 0 0 -155z m0 -360 l0 -165 -1040 0
-1040 0 0 165 0 165 1040 0 1040 0 0 -165z"/>
<path d="M1268 2143 c7 -3 12 -23 12 -48 0 -25 -5 -45 -12 -48 -7 -3 3 -5 22
-5 19 0 29 2 23 5 -15 5 -18 43 -4 43 5 0 12 -6 14 -12 3 -7 5 1 5 17 0 17 -2
24 -5 18 -8 -20 -23 -15 -23 7 0 21 24 27 36 9 4 -8 9 -7 16 2 6 9 8 -4 6 -39
-2 -41 0 -52 12 -52 12 0 14 11 12 55 l-4 55 -61 -1 c-34 0 -56 -3 -49 -6z"/>
<path d="M1636 2110 c-31 -48 -32 -50 -6 -50 11 0 20 -4 20 -10 0 -14 27 -12
32 3 7 18 -3 97 -12 97 -4 0 -19 -18 -34 -40z m14 -15 c0 -8 -4 -15 -10 -15
-5 0 -7 7 -4 15 4 8 8 15 10 15 2 0 4 -7 4 -15z"/>
<path d="M1401 2092 c-21 -39 35 -73 59 -34 10 16 10 16 20 0 14 -23 47 -23
59 0 21 39 -35 73 -59 35 -10 -17 -10 -17 -20 0 -14 22 -47 22 -59 -1z m39
-17 c0 -14 -4 -25 -10 -25 -5 0 -10 11 -10 25 0 14 5 25 10 25 6 0 10 -11 10
-25z m80 0 c0 -14 -4 -25 -10 -25 -5 0 -10 11 -10 25 0 14 5 25 10 25 6 0 10
-11 10 -25z"/>
<path d="M1560 2074 c0 -24 5 -34 16 -34 8 0 12 5 9 10 -9 14 4 52 16 45 5 -4
9 -2 9 3 0 5 -11 10 -25 10 -22 0 -25 -5 -25 -34z"/>
<path d="M1285 1715 c0 -53 1 -55 27 -55 22 0 25 3 20 22 -3 14 -2 19 6 14 8
-5 12 2 12 19 0 15 -4 24 -10 20 -5 -3 -10 1 -10 9 0 18 16 21 26 5 4 -8 9 -7
16 2 6 9 8 -4 6 -39 -3 -44 0 -52 15 -52 9 0 17 5 17 12 0 9 3 9 12 0 16 -16
55 -15 61 1 4 10 7 10 18 0 21 -20 57 -16 64 7 12 38 -34 67 -62 39 -8 -8 -17
-7 -32 3 -17 10 -25 10 -41 0 -18 -11 -20 -10 -20 18 l0 30 -62 0 -63 0 0 -55z
m175 -20 c0 -8 -4 -15 -10 -15 -5 0 -10 7 -10 15 0 8 5 15 10 15 6 0 10 -7 10
-15z m80 0 c0 -8 -4 -15 -10 -15 -5 0 -10 7 -10 15 0 8 5 15 10 15 6 0 10 -7
10 -15z"/>
<path d="M1639 1754 c-12 -16 -12 -17 3 -12 21 9 31 -2 17 -18 -9 -10 -7 -15
5 -20 27 -11 20 -35 -9 -28 -15 4 -25 2 -25 -5 0 -19 58 -13 69 8 6 10 8 21 4
25 -3 3 -6 18 -7 33 -1 34 -35 43 -57 17z"/>
<path d="M1575 1695 c0 -27 4 -35 18 -35 12 0 17 8 17 25 0 14 5 25 10 25 6 0
10 5 10 10 0 6 -12 10 -27 10 -25 0 -28 -3 -28 -35z"/>
<path d="M1288 1423 c7 -3 12 -23 12 -48 0 -25 -5 -45 -12 -48 -7 -3 3 -5 22
-5 19 0 29 2 23 5 -15 5 -18 43 -4 43 5 0 12 -6 14 -12 3 -7 5 1 5 17 0 17 -2
24 -5 18 -8 -20 -23 -15 -23 7 0 21 24 27 36 9 4 -8 9 -7 16 2 6 9 8 -4 6 -39
-2 -41 0 -52 12 -52 12 0 14 11 12 55 l-4 55 -61 -1 c-34 0 -56 -3 -49 -6z"/>
<path d="M1647 1423 c-12 -12 -7 -22 8 -17 24 9 19 -36 -7 -63 l-21 -23 36 0
c25 0 37 5 37 14 0 10 -7 12 -21 9 -22 -6 -22 -6 1 25 19 26 21 34 10 47 -13
16 -32 20 -43 8z"/>
<path d="M1421 1372 c-21 -39 35 -73 59 -34 10 16 10 16 20 0 14 -23 47 -23
59 0 21 39 -35 73 -59 35 -10 -17 -10 -17 -20 0 -14 22 -47 22 -59 -1z m39
-17 c0 -14 -4 -25 -10 -25 -5 0 -10 11 -10 25 0 14 5 25 10 25 6 0 10 -11 10
-25z m80 0 c0 -14 -4 -25 -10 -25 -5 0 -10 11 -10 25 0 14 5 25 10 25 6 0 10
-11 10 -25z"/>
<path d="M1580 1354 c0 -24 5 -34 16 -34 8 0 12 5 9 10 -9 14 4 52 16 45 5 -4
9 -2 9 3 0 5 -11 10 -25 10 -22 0 -25 -5 -25 -34z"/>
<path d="M1285 1015 c0 -52 1 -55 25 -54 14 0 19 3 13 6 -7 2 -13 14 -13 25 0
14 5 18 15 14 11 -4 15 1 14 17 0 12 -3 16 -6 10 -8 -21 -23 -15 -23 8 0 17 5
20 25 17 14 -3 25 -1 25 3 0 5 -17 9 -37 9 l-38 0 0 -55z"/>
<path d="M1370 1015 c0 -37 4 -55 13 -55 8 0 11 16 9 55 -5 71 -22 71 -22 0z"/>
<path d="M1638 1063 c7 -3 12 -23 12 -48 0 -25 -5 -45 -12 -48 -7 -3 3 -5 22
-5 19 0 29 2 23 5 -8 3 -13 24 -13 54 0 44 -2 49 -22 48 -13 0 -17 -3 -10 -6z"/>
<path d="M1414 1016 c-10 -25 0 -51 20 -54 27 -6 48 25 35 49 -12 22 -47 25
-55 5z m36 -21 c0 -14 -4 -25 -10 -25 -5 0 -10 11 -10 25 0 14 5 25 10 25 6 0
10 -11 10 -25z"/>
<path d="M1494 1016 c-10 -25 0 -51 20 -54 27 -6 48 25 35 49 -12 22 -47 25
-55 5z m36 -21 c0 -14 -4 -25 -10 -25 -5 0 -10 11 -10 25 0 14 5 25 10 25 6 0
10 -11 10 -25z"/>
<path d="M1570 994 c0 -24 5 -34 16 -34 8 0 12 5 9 10 -9 14 4 52 16 45 5 -4
9 -2 9 3 0 5 -11 10 -25 10 -22 0 -25 -5 -25 -34z"/>
</g>
</svg>
